<svg width="189" height="74" viewBox="0 0 189 74" fill="none" xmlns="http://www.w3.org/2000/svg">
<g clip-path="url(#clip0_2_221)">
<path d="M56.496 31.1576C56.496 36.3037 56.1035 37.9839 55.0568 39.2242C53.9143 40.2801 52.4198 40.8641 50.8701 40.8604L51.2626 43.9216C53.6646 43.9549 55.9931 43.0864 57.7957 41.485C59.671 39.5321 60.3252 36.8315 60.3252 32.6883V13.23H56.4873V31.184L56.496 31.1576Z" fill="black"/>
<path d="M85.1212 28.8128C85.1212 31.0296 85.1212 32.9824 85.2956 34.6626H81.9375L81.7195 31.1439H81.6322C80.9253 32.3737 79.9061 33.3912 78.6796 34.0916C77.4531 34.7921 76.0637 35.1501 74.6543 35.1288C71.3398 35.1288 67.3799 33.2639 67.3799 25.734V13.1899H71.2177V25.0918C71.2177 29.1735 72.4389 31.918 75.9191 31.918C77.0108 31.8979 78.0724 31.5533 78.9707 30.9273C79.8691 30.3014 80.5643 29.422 80.9693 28.3994C81.2021 27.7599 81.3203 27.0837 81.3182 26.4025V13.2075H85.1561V28.8128H85.1212Z" fill="black"/>
<path d="M92.3544 20.2062C92.3544 17.4617 92.2672 15.2449 92.1799 13.1689H95.6253L95.7997 16.8459H95.8869C96.6407 15.5285 97.737 14.4437 99.0575 13.7089C100.378 12.974 101.872 12.617 103.379 12.6763C108.473 12.6763 112.311 17.0746 112.311 23.5841C112.311 31.2988 107.697 35.1078 102.717 35.1078C101.438 35.1619 100.168 34.8797 99.0299 34.2891C97.8922 33.6984 96.9263 32.8195 96.2271 31.7387H96.1399V43.3943H92.3457V20.1711L92.3544 20.2062ZM96.1486 25.9241C96.1586 26.459 96.217 26.992 96.3231 27.5163C96.6357 28.8166 97.3722 29.9734 98.4144 30.8012C99.4567 31.6291 100.744 32.08 102.071 32.0817C106.127 32.0817 108.473 28.7126 108.473 23.7953C108.473 19.4937 106.249 15.8167 102.202 15.8167C100.841 15.8551 99.5315 16.3513 98.4821 17.2263C97.4327 18.1014 96.7035 19.3051 96.4103 20.6461C96.2566 21.1635 96.1686 21.6985 96.1486 22.2383V25.9153V25.9241Z" fill="black"/>
<path d="M119.101 13.21L123.715 25.886C124.194 27.3023 124.718 28.9913 125.067 30.2844H125.154C125.546 29.0001 125.982 27.3551 126.506 25.8069L130.693 13.2188H134.748L129 28.5162C126.253 35.8703 124.386 39.644 121.77 41.9488C120.447 43.1891 118.827 44.0594 117.068 44.4734L116.109 41.1923C117.339 40.7789 118.479 40.1308 119.467 39.2834C120.863 38.1072 121.967 36.6194 122.694 34.9378C122.849 34.6474 122.953 34.3318 122.999 34.0054C122.965 33.6536 122.877 33.3094 122.738 32.9849L114.94 13.2188H119.127L119.101 13.21Z" fill="black"/>
<path d="M144.822 7.04004V13.1977H150.308V16.171H144.822V27.7298C144.822 30.3688 145.563 31.8994 147.7 31.8994C148.45 31.9112 149.198 31.8224 149.924 31.6355L150.099 34.5648C149.007 34.9525 147.853 35.1315 146.697 35.0926C145.93 35.14 145.162 35.0182 144.446 34.7356C143.731 34.453 143.085 34.0165 142.554 33.4564C141.463 32.3041 141.071 30.3952 141.071 27.8706V16.171H137.8V13.1977H141.071V8.05166L144.822 7.04004Z" fill="black"/>
<path d="M157.378 24.6383C157.466 29.9163 160.78 32.0891 164.609 32.0891C166.611 32.1525 168.603 31.7742 170.445 30.9807L171.099 33.7693C168.892 34.704 166.514 35.1567 164.121 35.0976C157.631 35.0976 153.75 30.752 153.75 24.2776C153.75 17.8032 157.501 12.71 163.641 12.71C170.523 12.71 172.364 18.8676 172.364 22.8174C172.357 23.4265 172.313 24.0346 172.233 24.6383H157.405H157.378ZM168.622 21.8497C168.665 19.3691 167.619 15.5073 163.31 15.5073C159.428 15.5073 157.736 19.1403 157.431 21.8497H168.63H168.622Z" fill="black"/>
<path d="M177.944 19.8985C177.944 17.3739 177.901 15.2011 177.77 13.2042H181.128L181.259 17.4178H181.433C182.393 14.5325 184.704 12.7204 187.269 12.7204C187.636 12.715 188.003 12.7594 188.359 12.8524V16.5294C187.929 16.4349 187.49 16.3906 187.051 16.3974C184.347 16.3974 182.436 18.4822 181.913 21.4027C181.805 22.0038 181.747 22.6129 181.739 23.2237V34.6594H177.944V19.8985Z" fill="black"/>
<path d="M37.1936 3.15406C37.2189 3.74171 37.0709 4.32373 36.7682 4.82651C36.4655 5.32928 36.0217 5.73021 35.493 5.97857C34.9643 6.22694 34.3745 6.31157 33.7981 6.22177C33.2217 6.13196 32.6847 5.87176 32.2549 5.47407C31.8252 5.07639 31.5221 4.55909 31.384 3.98763C31.2458 3.41617 31.2788 2.81623 31.4788 2.2637C31.6788 1.71116 32.0369 1.23088 32.5076 0.883597C32.9783 0.536318 33.5406 0.33765 34.1233 0.312731C34.9039 0.279347 35.6658 0.559848 36.2415 1.09261C36.8172 1.62537 37.1596 2.36682 37.1936 3.15406Z" fill="black"/>
<path d="M20.0046 38.1141C12.1545 38.1141 5.29871 35.2376 1.73999 30.98C3.06538 34.8004 5.53555 38.1108 8.80859 40.453C12.0817 42.7952 15.9957 44.0534 20.009 44.0534C24.0223 44.0534 27.9363 42.7952 31.2094 40.453C34.4824 38.1108 36.9526 34.8004 38.278 30.98C34.7105 35.2376 27.8548 38.1141 20.0046 38.1141Z" fill="black"/>
<path d="M20.0033 10.4193C27.8535 10.4193 34.7093 13.2958 38.268 17.5534C36.9426 13.733 34.4724 10.4226 31.1994 8.08038C27.9263 5.73816 24.0123 4.47998 19.999 4.47998C15.9857 4.47998 12.0717 5.73816 8.79858 8.08038C5.52554 10.4226 3.05537 13.733 1.72998 17.5534C5.29743 13.3046 12.1532 10.4193 20.0033 10.4193Z" fill="black"/>
<path d="M9.22794 46.3934C9.26013 47.1344 9.0736 47.8682 8.69198 48.5022C8.31036 49.1361 7.7508 49.6416 7.08416 49.9547C6.41752 50.2677 5.67376 50.3742 4.94707 50.2607C4.22037 50.1472 3.54341 49.8188 3.00189 49.317C2.46038 48.8153 2.07866 48.1627 1.90507 47.4421C1.73147 46.7214 1.77381 45.965 2.02672 45.2686C2.27964 44.5722 2.73175 43.9672 3.32581 43.5301C3.91988 43.093 4.62919 42.8435 5.36394 42.8132C6.34672 42.7727 7.30534 43.1268 8.02966 43.7979C8.75398 44.469 9.18489 45.4024 9.22794 46.3934Z" fill="black"/>
<path d="M2.63482 9.45635C2.20374 9.47514 1.77682 9.36451 1.4081 9.13849C1.03938 8.91246 0.745435 8.5812 0.563478 8.18662C0.381521 7.79204 0.319728 7.35189 0.385919 6.92187C0.452111 6.49186 0.643311 6.09132 0.93532 5.77094C1.22733 5.45057 1.60702 5.22477 2.02633 5.12212C2.44564 5.01947 2.88572 5.04459 3.29087 5.19429C3.69602 5.344 4.04803 5.61156 4.30233 5.96312C4.55663 6.31468 4.7018 6.73442 4.71946 7.16922C4.7431 7.75113 4.53689 8.31875 4.14608 8.74752C3.75527 9.1763 3.21177 9.43122 2.63482 9.45635Z" fill="black"/>
<path d="M85.42 61C85.3 60.34 85.26 59.52 85.26 58.68V55.06C85.26 53.12 84.54 51.1 81.58 51.1C80.36 51.1 79.2 51.44 78.4 51.96L78.8 53.12C79.48 52.68 80.42 52.4 81.32 52.4C83.3 52.4 83.52 53.84 83.52 54.64V54.84C79.78 54.82 77.7 56.1 77.7 58.44C77.7 59.84 78.7 61.22 80.66 61.22C82.04 61.22 83.08 60.54 83.62 59.78H83.68L83.82 61H85.42ZM83.56 57.74C83.56 57.92 83.52 58.12 83.46 58.3C83.18 59.12 82.38 59.92 81.12 59.92C80.22 59.92 79.46 59.38 79.46 58.24C79.46 56.36 81.64 56.02 83.56 56.06V57.74ZM95.7084 59.32C95.2084 59.54 94.5484 59.8 93.5484 59.8C91.6284 59.8 90.1884 58.42 90.1884 56.18C90.1884 54.16 91.3884 52.52 93.6084 52.52C94.5684 52.52 95.2284 52.74 95.6484 52.98L96.0484 51.62C95.5684 51.38 94.6484 51.12 93.6084 51.12C90.4484 51.12 88.4084 53.28 88.4084 56.26C88.4084 59.22 90.3084 61.2 93.2284 61.2C94.5284 61.2 95.5484 60.88 96.0084 60.64L95.7084 59.32ZM105.556 59.32C105.056 59.54 104.396 59.8 103.396 59.8C101.476 59.8 100.036 58.42 100.036 56.18C100.036 54.16 101.236 52.52 103.456 52.52C104.416 52.52 105.076 52.74 105.496 52.98L105.896 51.62C105.416 51.38 104.496 51.12 103.456 51.12C100.296 51.12 98.2561 53.28 98.2561 56.26C98.2561 59.22 100.156 61.2 103.076 61.2C104.376 61.2 105.396 60.88 105.856 60.64L105.556 59.32ZM116.584 56.48C116.604 56.3 116.644 56.02 116.644 55.66C116.644 53.88 115.804 51.1 112.644 51.1C109.824 51.1 108.104 53.4 108.104 56.32C108.104 59.24 109.884 61.2 112.864 61.2C114.404 61.2 115.464 60.88 116.084 60.6L115.784 59.34C115.124 59.62 114.364 59.84 113.104 59.84C111.344 59.84 109.824 58.86 109.784 56.48H116.584ZM109.804 55.22C109.944 54 110.724 52.36 112.504 52.36C114.484 52.36 114.964 54.1 114.944 55.22H109.804ZM119.143 60.54C119.823 60.94 120.803 61.2 121.863 61.2C124.163 61.2 125.483 60 125.483 58.3C125.483 56.86 124.623 56.02 122.943 55.38C121.683 54.9 121.103 54.54 121.103 53.74C121.103 53.02 121.683 52.42 122.723 52.42C123.623 52.42 124.323 52.74 124.703 52.98L125.143 51.7C124.603 51.38 123.743 51.1 122.763 51.1C120.683 51.1 119.423 52.38 119.423 53.94C119.423 55.1 120.243 56.06 121.983 56.68C123.283 57.16 123.783 57.62 123.783 58.46C123.783 59.26 123.183 59.9 121.903 59.9C121.023 59.9 120.103 59.54 119.583 59.2L119.143 60.54ZM128.073 60.54C128.753 60.94 129.733 61.2 130.793 61.2C133.093 61.2 134.413 60 134.413 58.3C134.413 56.86 133.553 56.02 131.873 55.38C130.613 54.9 130.033 54.54 130.033 53.74C130.033 53.02 130.613 52.42 131.653 52.42C132.553 52.42 133.253 52.74 133.633 52.98L134.073 51.7C133.533 51.38 132.673 51.1 131.693 51.1C129.613 51.1 128.353 52.38 128.353 53.94C128.353 55.1 129.173 56.06 130.913 56.68C132.213 57.16 132.713 57.62 132.713 58.46C132.713 59.26 132.113 59.9 130.833 59.9C129.953 59.9 129.033 59.54 128.513 59.2L128.073 60.54ZM139.443 61V51.32H137.683V61H139.443ZM138.563 47.5C137.923 47.5 137.463 47.98 137.463 48.6C137.463 49.2 137.903 49.68 138.523 49.68C139.223 49.68 139.663 49.2 139.643 48.6C139.643 47.98 139.223 47.5 138.563 47.5ZM144.81 61L144.89 59.4H144.95C145.67 60.68 146.79 61.22 148.19 61.22C150.35 61.22 152.53 59.5 152.53 56.04C152.55 53.1 150.85 51.1 148.45 51.1C146.89 51.1 145.77 51.8 145.15 52.88H145.11V46.8H143.37V58.5C143.37 59.36 143.33 60.34 143.29 61H144.81ZM145.11 55.38C145.11 55.1 145.17 54.86 145.21 54.66C145.57 53.32 146.69 52.5 147.89 52.5C149.77 52.5 150.77 54.16 150.77 56.1C150.77 58.32 149.67 59.82 147.83 59.82C146.55 59.82 145.53 58.98 145.19 57.76C145.15 57.56 145.11 57.34 145.11 57.12V55.38ZM157.517 61V51.32H155.757V61H157.517ZM156.637 47.5C155.997 47.5 155.537 47.98 155.537 48.6C155.537 49.2 155.977 49.68 156.597 49.68C157.297 49.68 157.737 49.2 157.717 48.6C157.717 47.98 157.297 47.5 156.637 47.5ZM161.444 61H163.204V46.8H161.444V61ZM168.931 61V51.32H167.171V61H168.931ZM168.051 47.5C167.411 47.5 166.951 47.98 166.951 48.6C166.951 49.2 167.391 49.68 168.011 49.68C168.711 49.68 169.151 49.2 169.131 48.6C169.131 47.98 168.711 47.5 168.051 47.5ZM173.258 49V51.32H171.758V52.66H173.258V57.94C173.258 59.08 173.438 59.94 173.938 60.46C174.358 60.94 175.018 61.2 175.838 61.2C176.518 61.2 177.058 61.1 177.398 60.96L177.318 59.64C177.098 59.7 176.758 59.76 176.298 59.76C175.318 59.76 174.978 59.08 174.978 57.88V52.66H177.498V51.32H174.978V48.54L173.258 49ZM179.375 51.32L182.955 60.24C183.035 60.46 183.075 60.6 183.075 60.7C183.075 60.8 183.015 60.94 182.935 61.12C182.535 62.02 181.935 62.7 181.455 63.08C180.935 63.52 180.355 63.8 179.915 63.94L180.355 65.42C180.795 65.34 181.655 65.04 182.515 64.28C183.715 63.24 184.575 61.54 185.835 58.22L188.475 51.32H186.615L184.695 57C184.455 57.7 184.255 58.44 184.075 59.02H184.035C183.875 58.44 183.635 57.68 183.415 57.04L181.295 51.32H179.375Z" fill="black"/>
</g>
<defs>
<clipPath id="clip0_2_221">
<rect width="189" height="74" fill="white"/>
</clipPath>
</defs>
</svg>
